<svg width="48" height="47" viewBox="0 0 48 47" fill="none" xmlns="http://www.w3.org/2000/svg">
<path fill-rule="evenodd" clip-rule="evenodd" d="M26.5458 1.3482C25.0042 -0.449401 22.2228 -0.449401 20.6815 1.3482L20.4647 1.6008C19.3901 2.85374 17.6385 3.28554 16.1048 2.67546L15.7955 2.55247C13.5951 1.67719 11.1324 2.96974 10.6026 5.27786L10.5283 5.6022C10.1591 7.21097 8.80865 8.40744 7.16715 8.57999L6.83615 8.61477C4.48097 8.86233 2.90086 11.1513 3.5047 13.4412L3.58958 13.763C4.01016 15.359 3.37048 17.0461 1.99714 17.9617L1.72018 18.1463C-0.249966 19.46 -0.585372 22.2211 1.01324 23.9681L1.23792 24.2136C2.35222 25.4313 2.56985 27.2225 1.77921 28.6714L1.61973 28.9635C0.485755 31.0424 1.472 33.643 3.69943 34.447L4.01251 34.56C5.56501 35.1204 6.59003 36.6053 6.5633 38.2556L6.55802 38.5883C6.51984 40.9562 8.60188 42.8005 10.9477 42.4773L11.2775 42.4319C12.9125 42.2065 14.5103 43.045 15.2536 44.5187L15.4034 44.8158C16.4701 46.9301 19.1707 47.5957 21.0977 46.2193L21.3685 46.0259C22.7116 45.0665 24.5158 45.0665 25.8589 46.0259L26.1296 46.2193C28.0566 47.5957 30.7572 46.9301 31.8239 44.8158L31.9737 44.5187C32.7171 43.045 34.3148 42.2065 35.9498 42.4319L36.2797 42.4773C38.6254 42.8005 40.7075 40.9562 40.6693 38.5883L40.664 38.2556C40.6373 36.6053 41.6623 35.1204 43.2148 34.56L43.5279 34.447C45.7553 33.643 46.7416 31.0424 45.6073 28.9635L45.4481 28.6714C44.6575 27.2225 44.8751 25.4313 45.9894 24.2136L46.2141 23.9681C47.8127 22.2211 47.4773 19.46 45.5071 18.1463L45.2302 17.9617C43.8568 17.0461 43.2172 15.359 43.6377 13.763L43.7226 13.4412C44.3265 11.1513 42.7463 8.86233 40.3912 8.61477L40.0602 8.57999C38.4187 8.40744 37.0682 7.21097 36.6991 5.6022L36.6247 5.27786C36.0949 2.96974 33.6322 1.67718 31.4318 2.55247L31.1226 2.67546C29.5889 3.28554 27.8369 2.85374 26.7626 1.6008L26.5458 1.3482ZM18.0686 20.9296C19.7282 20.9296 21.0736 19.5842 21.0736 17.9245C21.0736 16.2649 19.7282 14.9194 18.0686 14.9194C16.4089 14.9194 15.0635 16.2649 15.0635 17.9245C15.0635 19.5842 16.4089 20.9296 18.0686 20.9296ZM29.1594 32.0214C30.819 32.0214 32.1645 30.676 32.1645 29.0163C32.1645 27.3567 30.819 26.0112 29.1594 26.0112C27.4997 26.0112 26.1543 27.3567 26.1543 29.0163C26.1543 30.676 27.4997 32.0214 29.1594 32.0214ZM30.4762 16.6086C30.8493 16.9816 30.8493 17.5865 30.4763 17.9595L18.1316 30.3048C17.7585 30.6779 17.1537 30.6779 16.7806 30.3048C16.4075 29.9318 16.4075 29.3269 16.7806 28.9539L29.1253 16.6086C29.4983 16.2355 30.1032 16.2355 30.4762 16.6086Z" fill="white"/>
</svg>
