<svg width="31" height="32" viewBox="0 0 31 32" fill="none" xmlns="http://www.w3.org/2000/svg">
<path fill-rule="evenodd" clip-rule="evenodd" d="M16.4004 2C24.1324 2 30.4004 8.26801 30.4004 16C30.4004 23.732 24.1324 30 16.4004 30C8.6684 30 2.40039 23.732 2.40039 16C2.40039 8.26801 8.6684 2 16.4004 2ZM16.4004 27.9C17.1094 27.9 18.3167 27.2706 19.4718 24.9603C19.9893 23.9253 20.4269 22.6703 20.7441 21.2521H12.0566C12.3739 22.6703 12.8114 23.9253 13.3289 24.9603C14.4841 27.2706 15.6913 27.9 16.4004 27.9ZM11.6935 19.1521C11.5683 18.1525 11.5004 17.0968 11.5004 16C11.5004 14.9034 11.5683 13.848 11.6935 12.8486H21.1073C21.2325 13.848 21.3004 14.9034 21.3004 16C21.3004 17.0968 21.2325 18.1525 21.1072 19.1521H11.6935ZM22.8911 21.2521C22.4186 23.5858 21.6405 25.6067 20.6561 27.1164C23.4651 26.0404 25.7622 23.9303 27.0817 21.2521H22.8911ZM27.8689 19.1867C27.7832 19.1641 27.6932 19.1521 27.6004 19.1521H23.2223C23.3388 18.139 23.4004 17.0839 23.4004 16C23.4004 14.9164 23.3388 13.8615 23.2223 12.8486H27.8786C28.1536 13.8523 28.3004 14.909 28.3004 16C28.3004 17.1038 28.1501 18.1725 27.8689 19.1867ZM9.57853 19.1521H4.92233C4.64727 18.1481 4.50039 17.0912 4.50039 16C4.50039 14.909 4.64721 13.8523 4.92216 12.8486H9.57845C9.46195 13.8615 9.40039 14.9164 9.40039 16C9.40039 17.0839 9.46197 18.139 9.57853 19.1521ZM5.71913 21.2521H9.90963C10.3822 23.5858 11.1603 25.6067 12.1447 27.1164C9.33569 26.0404 7.03856 23.9303 5.71913 21.2521ZM12.0565 10.7486H20.7443C20.4271 9.33009 19.9894 8.07481 19.4718 7.03965C18.3167 4.72939 17.1094 4.1 16.4004 4.1C15.6913 4.1 14.4841 4.72939 13.3289 7.03965C12.8114 8.07481 12.3737 9.33009 12.0565 10.7486ZM22.8913 10.7486H27.082C25.7626 8.06999 23.4653 5.95967 20.6561 4.88356C21.6406 6.3934 22.4187 8.41457 22.8913 10.7486ZM12.1447 4.88356C11.1602 6.3934 10.382 8.41457 9.9095 10.7486H5.71882C7.0382 8.06999 9.33547 5.95967 12.1447 4.88356Z" fill="white"/>
</svg>
