<svg width="24" height="24" viewBox="0 0 24 24" fill="none" xmlns="http://www.w3.org/2000/svg">
<path d="M8.40156 3.59961H15.6016C16.8746 3.59961 18.0955 4.10532 18.9957 5.0055C19.8958 5.90567 20.4016 7.12657 20.4016 8.39961V15.5996C20.4016 16.8726 19.8958 18.0935 18.9957 18.9937C18.0955 19.8939 16.8746 20.3996 15.6016 20.3996H8.40156C7.12852 20.3996 5.90762 19.8939 5.00745 18.9937C4.10728 18.0935 3.60156 16.8726 3.60156 15.5996V8.39961C3.60156 7.12657 4.10728 5.90567 5.00745 5.0055C5.90762 4.10532 7.12852 3.59961 8.40156 3.59961ZM12.0016 15.5996C11.0468 15.5996 10.1311 15.2203 9.45598 14.5452C8.78085 13.8701 8.40156 12.9544 8.40156 11.9996C8.40156 11.0448 8.78085 10.1292 9.45598 9.45402C10.1311 8.77889 11.0468 8.39961 12.0016 8.39961C12.9563 8.39961 13.872 8.77889 14.5471 9.45402C15.2223 10.1292 15.6016 11.0448 15.6016 11.9996C15.6016 12.9544 15.2223 13.8701 14.5471 14.5452C13.872 15.2203 12.9563 15.5996 12.0016 15.5996Z" stroke="#262635" stroke-width="1.6"/>
<ellipse cx="16.9992" cy="7.39961" rx="0.8" ry="0.800001" fill="#262635"/>
</svg>
