<svg width="100" height="100" viewBox="0 0 100 100" fill="none" xmlns="http://www.w3.org/2000/svg">
<path d="M0 50C0 31.3077 0 21.9615 4.01924 15C6.65229 10.4394 10.4394 6.65229 15 4.01924C21.9615 0 31.3077 0 50 0H76C87.3137 0 92.9706 0 96.4853 3.51472C100 7.02944 100 12.6863 100 24V50C100 68.6923 100 78.0385 95.9808 85C93.3477 89.5606 89.5606 93.3477 85 95.9808C78.0385 100 68.6923 100 50 100V100C31.3077 100 21.9615 100 15 95.9808C10.4394 93.3477 6.65229 89.5606 4.01924 85C0 78.0385 0 68.6923 0 50V50Z" fill="#FD5757"/>
<path d="M34 29V69H65V39.1538L64.535 38.6923L55.235 29.4615L54.77 29H34V29ZM37.1 32.0769H52.6V41.3077H61.9V65.9231H37.1V32.0769ZM55.7 34.2308L59.73 38.2308H55.7V34.2308ZM49.5 44.3846L43.3 50.5385H47.95V58.2308H51.05V50.5385H55.7L49.5 44.3846ZM43.3 59.7692V62.8462H55.7V59.7692H43.3Z" fill="white"/>
</svg>
