<svg width="100" height="100" viewBox="0 0 100 100" fill="none" xmlns="http://www.w3.org/2000/svg">
<path d="M0 50C0 31.3077 0 21.9615 4.01924 15C6.65229 10.4394 10.4394 6.65229 15 4.01924C21.9615 0 31.3077 0 50 0H76C87.3137 0 92.9706 0 96.4853 3.51472C100 7.02944 100 12.6863 100 24V50C100 68.6923 100 78.0385 95.9808 85C93.3477 89.5606 89.5606 93.3477 85 95.9808C78.0385 100 68.6923 100 50 100V100C31.3077 100 21.9615 100 15 95.9808C10.4394 93.3477 6.65229 89.5606 4.01924 85C0 78.0385 0 68.6923 0 50V50Z" fill="#00A87B"/>
<path d="M51.5 47.5C50.5 47.25 49.5 46.75 48.75 46C48 45.75 47.75 45 47.75 44.5C47.75 44 48 43.25 48.5 43C49.25 42.5 50 42 50.75 42.25C52.25 42.25 53.5 43 54.25 44L56.5 41C55.75 40.25 55 39.75 54.25 39.25C53.5 38.75 52.5 38.5 51.5 38.5V35H48.5V38.5C47.25 38.75 46 39.5 45 40.5C44 41.75 43.25 43.25 43.5 44.75C43.5 46.25 44 47.75 45 48.75C46.25 50 48 50.75 49.5 51.5C50.25 51.75 51.25 52.25 52 52.75C52.5 53.25 52.75 54 52.75 54.75C52.75 55.5 52.5 56.25 52 57C51.25 57.75 50.25 58 49.5 58C48.5 58 47.25 57.75 46.5 57C45.75 56.5 45 55.75 44.5 55L42 57.75C42.75 58.75 43.5 59.5 44.5 60.25C45.75 61 47.25 61.75 48.75 61.75V65H51.5V61.25C53 61 54.25 60.25 55.25 59.25C56.5 58 57.25 56 57.25 54.25C57.25 52.75 56.75 51 55.5 50C54.25 48.75 53 48 51.5 47.5V47.5ZM50 30C39 30 30 39 30 50C30 61 39 70 50 70C61 70 70 61 70 50C70 39 61 30 50 30ZM50 67.25C40.5 67.25 32.75 59.5 32.75 50C32.75 40.5 40.5 32.75 50 32.75C59.5 32.75 67.25 40.5 67.25 50C67.25 59.5 59.5 67.25 50 67.25V67.25Z" fill="white"/>
</svg>
