<svg width="125" height="19" viewBox="0 0 125 19" fill="none" xmlns="http://www.w3.org/2000/svg">
<path d="M115.5 0L117.633 6.56434H124.535L118.951 10.6213L121.084 17.1857L115.5 13.1287L109.916 17.1857L112.049 10.6213L106.465 6.56434H113.367L115.5 0Z" fill="#FE7E22"/>
<path d="M88.5 0L90.6329 6.56434H97.535L91.9511 10.6213L94.084 17.1857L88.5 13.1287L82.916 17.1857L85.0489 10.6213L79.465 6.56434H86.3671L88.5 0Z" fill="#FE7E22"/>
<path d="M62.5 0L64.6329 6.56434H71.535L65.9511 10.6213L68.084 17.1857L62.5 13.1287L56.916 17.1857L59.0489 10.6213L53.465 6.56434H60.3671L62.5 0Z" fill="#FE7E22"/>
<path d="M36.5 0L38.6329 6.56434H45.535L39.9511 10.6213L42.084 17.1857L36.5 13.1287L30.916 17.1857L33.0489 10.6213L27.465 6.56434H34.3671L36.5 0Z" fill="#FE7E22"/>
<path d="M9.5 0L11.6329 6.56434H18.535L12.9511 10.6213L15.084 17.1857L9.5 13.1287L3.91604 17.1857L6.04892 10.6213L0.464963 6.56434H7.36712L9.5 0Z" fill="#FE7E22"/>
</svg>
