<svg width="100" height="100" viewBox="0 0 100 100" fill="none" xmlns="http://www.w3.org/2000/svg">
<path d="M0 50C0 31.3077 0 21.9615 4.01924 15C6.65229 10.4394 10.4394 6.65229 15 4.01924C21.9615 0 31.3077 0 50 0H76C87.3137 0 92.9706 0 96.4853 3.51472C100 7.02944 100 12.6863 100 24V50C100 68.6923 100 78.0385 95.9808 85C93.3477 89.5606 89.5606 93.3477 85 95.9808C78.0385 100 68.6923 100 50 100V100C31.3077 100 21.9615 100 15 95.9808C10.4394 93.3477 6.65229 89.5606 4.01924 85C0 78.0385 0 68.6923 0 50V50Z" fill="#7342E4"/>
<path d="M47.6 54.8H42.8C42.8 49.0713 45.0757 43.5773 49.1265 39.5265C53.1773 35.4757 58.6713 33.2 64.4 33.2V38C55.112 38 47.6 45.512 47.6 54.8ZM64.4 47.6V42.8C57.776 42.8 52.4 48.176 52.4 54.8H57.2C57.2 50.816 60.416 47.6 64.4 47.6ZM38 30.8C38 28.136 35.864 26 33.2 26C30.536 26 28.4 28.136 28.4 30.8C28.4 33.464 30.536 35.6 33.2 35.6C35.864 35.6 38 33.464 38 30.8ZM48.68 32H43.88C43.6015 33.6765 42.737 35.1998 41.4405 36.2985C40.1439 37.3973 38.4995 38.0002 36.8 38H29.6C27.608 38 26 39.608 26 41.6V47.6H40.4V42.176C42.6237 41.4747 44.593 40.1371 46.0646 38.3286C47.5362 36.52 48.4455 34.3198 48.68 32V32ZM66.8 62C69.464 62 71.6 59.864 71.6 57.2C71.6 54.536 69.464 52.4 66.8 52.4C64.136 52.4 62 54.536 62 57.2C62 59.864 64.136 62 66.8 62ZM70.4 64.4H63.2C61.5005 64.4002 59.8561 63.7973 58.5595 62.6985C57.263 61.5998 56.3985 60.0765 56.12 58.4H51.32C51.5545 60.7198 52.4638 62.92 53.9354 64.7286C55.407 66.5371 57.3763 67.8747 59.6 68.576V74H74V68C74 66.008 72.392 64.4 70.4 64.4Z" fill="white"/>
</svg>
