<svg width="59" height="59" viewBox="0 0 59 59" fill="none" xmlns="http://www.w3.org/2000/svg">
<path d="M29.3524 5.43307L23.4278 19.2243H17.5032C16.5199 19.2243 15.5611 19.2981 14.627 19.4947L17.0853 13.5947L17.1836 13.3735L17.3311 12.9802C17.4049 12.8081 17.454 12.6606 17.5278 12.5377C20.3795 5.92474 23.5753 3.85974 29.3524 5.43307Z" fill="white"/>
<path d="M46.0445 19.8879L45.9953 19.8633C44.5203 19.4454 43.0208 19.2241 41.4966 19.2241H26.1074L31.6387 6.36703L31.7124 6.19495C32.0566 6.31786 32.4253 6.48995 32.7941 6.61286L38.227 8.89911C41.2508 10.1529 43.3649 11.4558 44.6678 13.0291C44.8891 13.3241 45.0858 13.5945 45.2824 13.9141C45.5037 14.2583 45.6758 14.6024 45.7741 14.9712C45.8724 15.1924 45.9462 15.3891 45.9953 15.6104C46.3641 16.8641 46.3887 18.2899 46.0445 19.8879Z" fill="white"/>
<path d="M30.7773 43.4144H31.3919C32.1294 43.4144 32.744 42.7506 32.744 41.9394C32.744 40.9069 32.449 40.7594 31.8098 40.5135L30.7773 40.1448V43.4144Z" fill="white"/>
<path d="M44.9631 23.4035C43.8568 23.084 42.7014 22.9119 41.4968 22.9119H17.5035C15.8318 22.9119 14.2585 23.2314 12.7835 23.8706C8.506 25.7144 5.50684 29.9673 5.50684 34.9085V39.7023C5.50684 40.2923 5.556 40.8577 5.62975 41.4477C6.17059 49.2652 10.3498 53.4444 18.1673 53.9606C18.7327 54.0344 19.2981 54.0835 19.9127 54.0835H39.0877C48.1835 54.0835 52.9773 49.7569 53.4443 41.1527C53.4689 40.6856 53.4935 40.1939 53.4935 39.7023V34.9085C53.4935 29.4756 49.8798 24.9031 44.9631 23.4035ZM32.6468 38.1044C33.7777 38.4977 35.3018 39.3335 35.3018 41.9394C35.3018 44.1764 33.5564 45.971 31.3931 45.971H30.7785V46.5119C30.7785 47.2248 30.2131 47.7902 29.5002 47.7902C28.7873 47.7902 28.2218 47.2248 28.2218 46.5119V45.971H28.0006C25.6406 45.971 23.6985 43.9798 23.6985 41.5214C23.6985 40.8085 24.2639 40.2431 24.9768 40.2431C25.6898 40.2431 26.2552 40.8085 26.2552 41.5214C26.2552 42.5539 27.0418 43.4144 28.0006 43.4144H28.2218V39.2598L26.3535 38.596C25.2227 38.2027 23.6985 37.3669 23.6985 34.761C23.6985 32.5239 25.4439 30.7294 27.6073 30.7294H28.2218V30.1885C28.2218 29.4756 28.7873 28.9102 29.5002 28.9102C30.2131 28.9102 30.7785 29.4756 30.7785 30.1885V30.7294H30.9998C33.3598 30.7294 35.3018 32.7206 35.3018 35.179C35.3018 35.8919 34.7364 36.4573 34.0235 36.4573C33.3106 36.4573 32.7452 35.8919 32.7452 35.179C32.7452 34.1465 31.9585 33.286 30.9998 33.286H30.7785V37.4406L32.6468 38.1044Z" fill="white"/>
<path d="M26.2539 34.7609C26.2539 35.7934 26.5489 35.9409 27.1881 36.1867L28.2206 36.5555V33.2859H27.606C26.8439 33.2859 26.2539 33.9496 26.2539 34.7609Z" fill="white"/>
</svg>
